<svg width="720" height="90" viewBox="0 0 720 90" fill="none" xmlns="http://www.w3.org/2000/svg">
<g clip-path="url(#clip0_107_1083)">
<rect width="72" height="90" fill="#F4F6F7"/>
<path d="M27.3175 67.112C26.1695 67.112 25.2829 66.6687 24.6575 65.782C24.0322 64.886 23.7195 63.6587 23.7195 62.1C23.7195 60.5413 24.0322 59.3187 24.6575 58.432C25.2829 57.536 26.1695 57.088 27.3175 57.088C28.4655 57.088 29.3522 57.536 29.9775 58.432C30.6029 59.3187 30.9155 60.5413 30.9155 62.1C30.9155 63.6587 30.6029 64.886 29.9775 65.782C29.3522 66.6687 28.4655 67.112 27.3175 67.112ZM28.1855 58.684C27.9429 58.5347 27.6535 58.46 27.3175 58.46C26.6269 58.46 26.0995 58.7773 25.7355 59.412C25.3809 60.0467 25.2035 60.9427 25.2035 62.1C25.2035 62.968 25.3202 63.71 25.5535 64.326L28.1855 58.684ZM27.3175 65.74C28.0082 65.74 28.5309 65.4227 28.8855 64.788C29.2495 64.1533 29.4315 63.2573 29.4315 62.1C29.4315 61.2413 29.3242 60.5273 29.1095 59.958L26.5055 65.53C26.7482 65.67 27.0189 65.74 27.3175 65.74ZM36.0972 67.112C35.2665 67.112 34.5618 66.874 33.9832 66.398C33.4138 65.922 33.0825 65.2687 32.9892 64.438L34.4172 64.172C34.5105 64.704 34.7065 65.1007 35.0052 65.362C35.3038 65.614 35.6678 65.74 36.0972 65.74C36.6292 65.74 37.0492 65.5673 37.3572 65.222C37.6652 64.8673 37.8192 64.3867 37.8192 63.78C37.8192 63.1733 37.6698 62.6973 37.3712 62.352C37.0818 62.0067 36.6618 61.834 36.1112 61.834C35.7378 61.834 35.3785 61.9273 35.0332 62.114C34.6878 62.2913 34.3938 62.5293 34.1512 62.828L33.2132 62.632L33.7592 57.2H38.6732V58.572H34.9912L34.6972 61.008C34.8932 60.8587 35.1358 60.7373 35.4252 60.644C35.7238 60.5507 36.0178 60.504 36.3072 60.504C37.2778 60.504 38.0198 60.798 38.5332 61.386C39.0465 61.974 39.3032 62.772 39.3032 63.78C39.3032 64.424 39.1678 64.998 38.8972 65.502C38.6358 66.006 38.2625 66.4027 37.7772 66.692C37.2918 66.972 36.7318 67.112 36.0972 67.112ZM44.6808 67.112C43.5328 67.112 42.6462 66.6687 42.0208 65.782C41.3955 64.886 41.0828 63.6587 41.0828 62.1C41.0828 60.5413 41.3955 59.3187 42.0208 58.432C42.6462 57.536 43.5328 57.088 44.6808 57.088C45.8288 57.088 46.7155 57.536 47.3408 58.432C47.9662 59.3187 48.2788 60.5413 48.2788 62.1C48.2788 63.6587 47.9662 64.886 47.3408 65.782C46.7155 66.6687 45.8288 67.112 44.6808 67.112ZM45.5488 58.684C45.3062 58.5347 45.0168 58.46 44.6808 58.46C43.9902 58.46 43.4628 58.7773 43.0988 59.412C42.7442 60.0467 42.5668 60.9427 42.5668 62.1C42.5668 62.968 42.6835 63.71 42.9168 64.326L45.5488 58.684ZM44.6808 65.74C45.3715 65.74 45.8942 65.4227 46.2488 64.788C46.6128 64.1533 46.7948 63.2573 46.7948 62.1C46.7948 61.2413 46.6875 60.5273 46.4728 59.958L43.8688 65.53C44.1115 65.67 44.3822 65.74 44.6808 65.74Z" fill="#3B444F"/>
<rect width="72" height="90" transform="translate(72)" fill="#E2E7EB"/>
<path d="M102.412 67H96.1955V65.656H98.5755V59.314L96.2375 60.7V59.104L99.4295 57.2H100.046V65.656H102.412V67ZM107.999 67.112C106.851 67.112 105.965 66.6687 105.339 65.782C104.714 64.886 104.401 63.6587 104.401 62.1C104.401 60.5413 104.714 59.3187 105.339 58.432C105.965 57.536 106.851 57.088 107.999 57.088C109.147 57.088 110.034 57.536 110.659 58.432C111.285 59.3187 111.597 60.5413 111.597 62.1C111.597 63.6587 111.285 64.886 110.659 65.782C110.034 66.6687 109.147 67.112 107.999 67.112ZM108.867 58.684C108.625 58.5347 108.335 58.46 107.999 58.46C107.309 58.46 106.781 58.7773 106.417 59.412C106.063 60.0467 105.885 60.9427 105.885 62.1C105.885 62.968 106.002 63.71 106.235 64.326L108.867 58.684ZM107.999 65.74C108.69 65.74 109.213 65.4227 109.567 64.788C109.931 64.1533 110.113 63.2573 110.113 62.1C110.113 61.2413 110.006 60.5273 109.791 59.958L107.187 65.53C107.43 65.67 107.701 65.74 107.999 65.74ZM116.681 67.112C115.533 67.112 114.646 66.6687 114.021 65.782C113.395 64.886 113.083 63.6587 113.083 62.1C113.083 60.5413 113.395 59.3187 114.021 58.432C114.646 57.536 115.533 57.088 116.681 57.088C117.829 57.088 118.715 57.536 119.341 58.432C119.966 59.3187 120.279 60.5413 120.279 62.1C120.279 63.6587 119.966 64.886 119.341 65.782C118.715 66.6687 117.829 67.112 116.681 67.112ZM117.549 58.684C117.306 58.5347 117.017 58.46 116.681 58.46C115.99 58.46 115.463 58.7773 115.099 59.412C114.744 60.0467 114.567 60.9427 114.567 62.1C114.567 62.968 114.683 63.71 114.917 64.326L117.549 58.684ZM116.681 65.74C117.371 65.74 117.894 65.4227 118.249 64.788C118.613 64.1533 118.795 63.2573 118.795 62.1C118.795 61.2413 118.687 60.5273 118.473 59.958L115.869 65.53C116.111 65.67 116.382 65.74 116.681 65.74Z" fill="#3B444F"/>
<rect width="72" height="90" transform="translate(144)" fill="#C8D2D9"/>
<path d="M168.252 67V66.37L171.934 61.722C172.232 61.3487 172.438 61.0313 172.55 60.77C172.662 60.4993 172.718 60.21 172.718 59.902C172.718 59.454 172.596 59.104 172.354 58.852C172.12 58.5907 171.784 58.46 171.346 58.46C170.935 58.46 170.599 58.5953 170.338 58.866C170.076 59.1367 169.913 59.51 169.848 59.986L168.434 59.72C168.471 59.2253 168.625 58.7773 168.896 58.376C169.166 57.9747 169.516 57.662 169.946 57.438C170.375 57.2047 170.846 57.088 171.36 57.088C172.246 57.088 172.942 57.34 173.446 57.844C173.95 58.3387 174.202 59.0107 174.202 59.86C174.202 60.2613 174.136 60.644 174.006 61.008C173.875 61.3627 173.67 61.722 173.39 62.086L170.604 65.628H174.398V67H168.252ZM179.999 67.112C178.851 67.112 177.965 66.6687 177.339 65.782C176.714 64.886 176.401 63.6587 176.401 62.1C176.401 60.5413 176.714 59.3187 177.339 58.432C177.965 57.536 178.851 57.088 179.999 57.088C181.147 57.088 182.034 57.536 182.659 58.432C183.285 59.3187 183.597 60.5413 183.597 62.1C183.597 63.6587 183.285 64.886 182.659 65.782C182.034 66.6687 181.147 67.112 179.999 67.112ZM180.867 58.684C180.625 58.5347 180.335 58.46 179.999 58.46C179.309 58.46 178.781 58.7773 178.417 59.412C178.063 60.0467 177.885 60.9427 177.885 62.1C177.885 62.968 178.002 63.71 178.235 64.326L180.867 58.684ZM179.999 65.74C180.69 65.74 181.213 65.4227 181.567 64.788C181.931 64.1533 182.113 63.2573 182.113 62.1C182.113 61.2413 182.006 60.5273 181.791 59.958L179.187 65.53C179.43 65.67 179.701 65.74 179.999 65.74ZM188.681 67.112C187.533 67.112 186.646 66.6687 186.021 65.782C185.395 64.886 185.083 63.6587 185.083 62.1C185.083 60.5413 185.395 59.3187 186.021 58.432C186.646 57.536 187.533 57.088 188.681 57.088C189.829 57.088 190.715 57.536 191.341 58.432C191.966 59.3187 192.279 60.5413 192.279 62.1C192.279 63.6587 191.966 64.886 191.341 65.782C190.715 66.6687 189.829 67.112 188.681 67.112ZM189.549 58.684C189.306 58.5347 189.017 58.46 188.681 58.46C187.99 58.46 187.463 58.7773 187.099 59.412C186.744 60.0467 186.567 60.9427 186.567 62.1C186.567 62.968 186.683 63.71 186.917 64.326L189.549 58.684ZM188.681 65.74C189.371 65.74 189.894 65.4227 190.249 64.788C190.613 64.1533 190.795 63.2573 190.795 62.1C190.795 61.2413 190.687 60.5273 190.473 59.958L187.869 65.53C188.111 65.67 188.382 65.74 188.681 65.74Z" fill="#3B444F"/>
<rect width="72" height="90" transform="translate(216)" fill="#A1B1BF"/>
<path d="M243.234 67.112C242.664 67.112 242.146 66.9953 241.68 66.762C241.222 66.5193 240.849 66.188 240.56 65.768C240.27 65.3387 240.098 64.8487 240.042 64.298L241.47 64.102C241.675 65.194 242.263 65.74 243.234 65.74C243.756 65.74 244.181 65.5767 244.508 65.25C244.834 64.914 244.998 64.4567 244.998 63.878C244.998 63.2807 244.834 62.8187 244.508 62.492C244.19 62.156 243.77 61.988 243.248 61.988C242.921 61.988 242.632 62.0533 242.38 62.184L241.792 61.358L243.822 58.572H240.504V57.2H245.964V57.69L243.57 60.938C243.7 60.9193 243.831 60.91 243.962 60.91C244.456 60.91 244.895 61.036 245.278 61.288C245.66 61.5307 245.954 61.876 246.16 62.324C246.374 62.772 246.482 63.2853 246.482 63.864C246.482 64.508 246.342 65.0773 246.062 65.572C245.782 66.0573 245.394 66.4353 244.9 66.706C244.414 66.9767 243.859 67.112 243.234 67.112ZM251.999 67.112C250.851 67.112 249.965 66.6687 249.339 65.782C248.714 64.886 248.401 63.6587 248.401 62.1C248.401 60.5413 248.714 59.3187 249.339 58.432C249.965 57.536 250.851 57.088 251.999 57.088C253.147 57.088 254.034 57.536 254.659 58.432C255.285 59.3187 255.597 60.5413 255.597 62.1C255.597 63.6587 255.285 64.886 254.659 65.782C254.034 66.6687 253.147 67.112 251.999 67.112ZM252.867 58.684C252.625 58.5347 252.335 58.46 251.999 58.46C251.309 58.46 250.781 58.7773 250.417 59.412C250.063 60.0467 249.885 60.9427 249.885 62.1C249.885 62.968 250.002 63.71 250.235 64.326L252.867 58.684ZM251.999 65.74C252.69 65.74 253.213 65.4227 253.567 64.788C253.931 64.1533 254.113 63.2573 254.113 62.1C254.113 61.2413 254.006 60.5273 253.791 59.958L251.187 65.53C251.43 65.67 251.701 65.74 251.999 65.74ZM260.681 67.112C259.533 67.112 258.646 66.6687 258.021 65.782C257.395 64.886 257.083 63.6587 257.083 62.1C257.083 60.5413 257.395 59.3187 258.021 58.432C258.646 57.536 259.533 57.088 260.681 57.088C261.829 57.088 262.715 57.536 263.341 58.432C263.966 59.3187 264.279 60.5413 264.279 62.1C264.279 63.6587 263.966 64.886 263.341 65.782C262.715 66.6687 261.829 67.112 260.681 67.112ZM261.549 58.684C261.306 58.5347 261.017 58.46 260.681 58.46C259.99 58.46 259.463 58.7773 259.099 59.412C258.744 60.0467 258.567 60.9427 258.567 62.1C258.567 62.968 258.683 63.71 258.917 64.326L261.549 58.684ZM260.681 65.74C261.371 65.74 261.894 65.4227 262.249 64.788C262.613 64.1533 262.795 63.2573 262.795 62.1C262.795 61.2413 262.687 60.5273 262.473 59.958L259.869 65.53C260.111 65.67 260.382 65.74 260.681 65.74Z" fill="#3B444F"/>
<rect width="72" height="90" transform="translate(288)" fill="#738A9D"/>
<path d="M317.53 67H316.046V65.04H311.846V64.354L315.948 57.2H317.53V63.668H318.79V65.04H317.53V67ZM316.046 59.426L313.722 63.668H316.046V59.426ZM323.999 67.112C322.851 67.112 321.965 66.6687 321.339 65.782C320.714 64.886 320.401 63.6587 320.401 62.1C320.401 60.5413 320.714 59.3187 321.339 58.432C321.965 57.536 322.851 57.088 323.999 57.088C325.147 57.088 326.034 57.536 326.659 58.432C327.285 59.3187 327.597 60.5413 327.597 62.1C327.597 63.6587 327.285 64.886 326.659 65.782C326.034 66.6687 325.147 67.112 323.999 67.112ZM324.867 58.684C324.625 58.5347 324.335 58.46 323.999 58.46C323.309 58.46 322.781 58.7773 322.417 59.412C322.063 60.0467 321.885 60.9427 321.885 62.1C321.885 62.968 322.002 63.71 322.235 64.326L324.867 58.684ZM323.999 65.74C324.69 65.74 325.213 65.4227 325.567 64.788C325.931 64.1533 326.113 63.2573 326.113 62.1C326.113 61.2413 326.006 60.5273 325.791 59.958L323.187 65.53C323.43 65.67 323.701 65.74 323.999 65.74ZM332.681 67.112C331.533 67.112 330.646 66.6687 330.021 65.782C329.395 64.886 329.083 63.6587 329.083 62.1C329.083 60.5413 329.395 59.3187 330.021 58.432C330.646 57.536 331.533 57.088 332.681 57.088C333.829 57.088 334.715 57.536 335.341 58.432C335.966 59.3187 336.279 60.5413 336.279 62.1C336.279 63.6587 335.966 64.886 335.341 65.782C334.715 66.6687 333.829 67.112 332.681 67.112ZM333.549 58.684C333.306 58.5347 333.017 58.46 332.681 58.46C331.99 58.46 331.463 58.7773 331.099 59.412C330.744 60.0467 330.567 60.9427 330.567 62.1C330.567 62.968 330.683 63.71 330.917 64.326L333.549 58.684ZM332.681 65.74C333.371 65.74 333.894 65.4227 334.249 64.788C334.613 64.1533 334.795 63.2573 334.795 62.1C334.795 61.2413 334.687 60.5273 334.473 59.958L331.869 65.53C332.111 65.67 332.382 65.74 332.681 65.74Z" fill="#3B444F"/>
<rect width="72" height="90" transform="translate(360)" fill="#586F82"/>
<path d="M387.416 67.112C386.585 67.112 385.88 66.874 385.302 66.398C384.732 65.922 384.401 65.2687 384.308 64.438L385.736 64.172C385.829 64.704 386.025 65.1007 386.324 65.362C386.622 65.614 386.986 65.74 387.416 65.74C387.948 65.74 388.368 65.5673 388.676 65.222C388.984 64.8673 389.138 64.3867 389.138 63.78C389.138 63.1733 388.988 62.6973 388.69 62.352C388.4 62.0067 387.98 61.834 387.43 61.834C387.056 61.834 386.697 61.9273 386.352 62.114C386.006 62.2913 385.712 62.5293 385.47 62.828L384.532 62.632L385.078 57.2H389.992V58.572H386.31L386.016 61.008C386.212 60.8587 386.454 60.7373 386.744 60.644C387.042 60.5507 387.336 60.504 387.626 60.504C388.596 60.504 389.338 60.798 389.852 61.386C390.365 61.974 390.622 62.772 390.622 63.78C390.622 64.424 390.486 64.998 390.216 65.502C389.954 66.006 389.581 66.4027 389.096 66.692C388.61 66.972 388.05 67.112 387.416 67.112ZM395.999 67.112C394.851 67.112 393.965 66.6687 393.339 65.782C392.714 64.886 392.401 63.6587 392.401 62.1C392.401 60.5413 392.714 59.3187 393.339 58.432C393.965 57.536 394.851 57.088 395.999 57.088C397.147 57.088 398.034 57.536 398.659 58.432C399.285 59.3187 399.597 60.5413 399.597 62.1C399.597 63.6587 399.285 64.886 398.659 65.782C398.034 66.6687 397.147 67.112 395.999 67.112ZM396.867 58.684C396.625 58.5347 396.335 58.46 395.999 58.46C395.309 58.46 394.781 58.7773 394.417 59.412C394.063 60.0467 393.885 60.9427 393.885 62.1C393.885 62.968 394.002 63.71 394.235 64.326L396.867 58.684ZM395.999 65.74C396.69 65.74 397.213 65.4227 397.567 64.788C397.931 64.1533 398.113 63.2573 398.113 62.1C398.113 61.2413 398.006 60.5273 397.791 59.958L395.187 65.53C395.43 65.67 395.701 65.74 395.999 65.74ZM404.681 67.112C403.533 67.112 402.646 66.6687 402.021 65.782C401.395 64.886 401.083 63.6587 401.083 62.1C401.083 60.5413 401.395 59.3187 402.021 58.432C402.646 57.536 403.533 57.088 404.681 57.088C405.829 57.088 406.715 57.536 407.341 58.432C407.966 59.3187 408.279 60.5413 408.279 62.1C408.279 63.6587 407.966 64.886 407.341 65.782C406.715 66.6687 405.829 67.112 404.681 67.112ZM405.549 58.684C405.306 58.5347 405.017 58.46 404.681 58.46C403.99 58.46 403.463 58.7773 403.099 59.412C402.744 60.0467 402.567 60.9427 402.567 62.1C402.567 62.968 402.683 63.71 402.917 64.326L405.549 58.684ZM404.681 65.74C405.371 65.74 405.894 65.4227 406.249 64.788C406.613 64.1533 406.795 63.2573 406.795 62.1C406.795 61.2413 406.687 60.5273 406.473 59.958L403.869 65.53C404.111 65.67 404.382 65.74 404.681 65.74Z" fill="#F4F6F7"/>
<rect width="72" height="90" transform="translate(432)" fill="#4C5D6E"/>
<path d="M459.318 67.112C458.72 67.112 458.179 66.972 457.694 66.692C457.208 66.412 456.826 66.0293 456.546 65.544C456.275 65.0587 456.14 64.5173 456.14 63.92C456.14 63.2853 456.303 62.6927 456.63 62.142L459.43 57.2H461.096L459.024 60.77C459.108 60.742 459.234 60.728 459.402 60.728C459.99 60.728 460.522 60.8633 460.998 61.134C461.474 61.4047 461.842 61.7827 462.104 62.268C462.374 62.7533 462.51 63.304 462.51 63.92C462.51 64.5173 462.37 65.0587 462.09 65.544C461.819 66.0293 461.441 66.412 460.956 66.692C460.47 66.972 459.924 67.112 459.318 67.112ZM459.318 65.74C459.803 65.74 460.204 65.572 460.522 65.236C460.848 64.8907 461.012 64.452 461.012 63.92C461.012 63.36 460.853 62.9167 460.536 62.59C460.218 62.2633 459.812 62.1 459.318 62.1C458.832 62.1 458.431 62.2633 458.114 62.59C457.796 62.9167 457.638 63.36 457.638 63.92C457.638 64.452 457.796 64.8907 458.114 65.236C458.431 65.572 458.832 65.74 459.318 65.74ZM467.999 67.112C466.851 67.112 465.965 66.6687 465.339 65.782C464.714 64.886 464.401 63.6587 464.401 62.1C464.401 60.5413 464.714 59.3187 465.339 58.432C465.965 57.536 466.851 57.088 467.999 57.088C469.147 57.088 470.034 57.536 470.659 58.432C471.285 59.3187 471.597 60.5413 471.597 62.1C471.597 63.6587 471.285 64.886 470.659 65.782C470.034 66.6687 469.147 67.112 467.999 67.112ZM468.867 58.684C468.625 58.5347 468.335 58.46 467.999 58.46C467.309 58.46 466.781 58.7773 466.417 59.412C466.063 60.0467 465.885 60.9427 465.885 62.1C465.885 62.968 466.002 63.71 466.235 64.326L468.867 58.684ZM467.999 65.74C468.69 65.74 469.213 65.4227 469.567 64.788C469.931 64.1533 470.113 63.2573 470.113 62.1C470.113 61.2413 470.006 60.5273 469.791 59.958L467.187 65.53C467.43 65.67 467.701 65.74 467.999 65.74ZM476.681 67.112C475.533 67.112 474.646 66.6687 474.021 65.782C473.395 64.886 473.083 63.6587 473.083 62.1C473.083 60.5413 473.395 59.3187 474.021 58.432C474.646 57.536 475.533 57.088 476.681 57.088C477.829 57.088 478.715 57.536 479.341 58.432C479.966 59.3187 480.279 60.5413 480.279 62.1C480.279 63.6587 479.966 64.886 479.341 65.782C478.715 66.6687 477.829 67.112 476.681 67.112ZM477.549 58.684C477.306 58.5347 477.017 58.46 476.681 58.46C475.99 58.46 475.463 58.7773 475.099 59.412C474.744 60.0467 474.567 60.9427 474.567 62.1C474.567 62.968 474.683 63.71 474.917 64.326L477.549 58.684ZM476.681 65.74C477.371 65.74 477.894 65.4227 478.249 64.788C478.613 64.1533 478.795 63.2573 478.795 62.1C478.795 61.2413 478.687 60.5273 478.473 59.958L475.869 65.53C476.111 65.67 476.382 65.74 476.681 65.74Z" fill="#F4F6F7"/>
<rect width="72" height="90" transform="translate(504)" fill="#465362"/>
<g filter="url(#filter0_dd_107_1083)">
<circle cx="540" cy="38" r="4" fill="#F4F6F7"/>
</g>
<path d="M530.226 67H528.686L532.69 58.572H528.14V57.2H534.51V57.816L530.226 67ZM539.999 67.112C538.851 67.112 537.965 66.6687 537.339 65.782C536.714 64.886 536.401 63.6587 536.401 62.1C536.401 60.5413 536.714 59.3187 537.339 58.432C537.965 57.536 538.851 57.088 539.999 57.088C541.147 57.088 542.034 57.536 542.659 58.432C543.285 59.3187 543.597 60.5413 543.597 62.1C543.597 63.6587 543.285 64.886 542.659 65.782C542.034 66.6687 541.147 67.112 539.999 67.112ZM540.867 58.684C540.625 58.5347 540.335 58.46 539.999 58.46C539.309 58.46 538.781 58.7773 538.417 59.412C538.063 60.0467 537.885 60.9427 537.885 62.1C537.885 62.968 538.002 63.71 538.235 64.326L540.867 58.684ZM539.999 65.74C540.69 65.74 541.213 65.4227 541.567 64.788C541.931 64.1533 542.113 63.2573 542.113 62.1C542.113 61.2413 542.006 60.5273 541.791 59.958L539.187 65.53C539.43 65.67 539.701 65.74 539.999 65.74ZM548.681 67.112C547.533 67.112 546.646 66.6687 546.021 65.782C545.395 64.886 545.083 63.6587 545.083 62.1C545.083 60.5413 545.395 59.3187 546.021 58.432C546.646 57.536 547.533 57.088 548.681 57.088C549.829 57.088 550.715 57.536 551.341 58.432C551.966 59.3187 552.279 60.5413 552.279 62.1C552.279 63.6587 551.966 64.886 551.341 65.782C550.715 66.6687 549.829 67.112 548.681 67.112ZM549.549 58.684C549.306 58.5347 549.017 58.46 548.681 58.46C547.99 58.46 547.463 58.7773 547.099 59.412C546.744 60.0467 546.567 60.9427 546.567 62.1C546.567 62.968 546.683 63.71 546.917 64.326L549.549 58.684ZM548.681 65.74C549.371 65.74 549.894 65.4227 550.249 64.788C550.613 64.1533 550.795 63.2573 550.795 62.1C550.795 61.2413 550.687 60.5273 550.473 59.958L547.869 65.53C548.111 65.67 548.382 65.74 548.681 65.74Z" fill="#F4F6F7"/>
<rect width="72" height="90" transform="translate(576)" fill="#3B444F"/>
<path d="M603.318 67.112C602.758 67.112 602.24 66.9953 601.764 66.762C601.288 66.5193 600.91 66.174 600.63 65.726C600.35 65.2687 600.21 64.7367 600.21 64.13C600.21 63.5607 600.331 63.0707 600.574 62.66C600.816 62.2493 601.152 61.9367 601.582 61.722C601.264 61.5167 601.012 61.2367 600.826 60.882C600.648 60.5273 600.56 60.1447 600.56 59.734C600.56 59.2487 600.676 58.8053 600.91 58.404C601.143 58.0027 601.47 57.6853 601.89 57.452C602.31 57.2093 602.786 57.088 603.318 57.088C603.85 57.088 604.326 57.2093 604.746 57.452C605.166 57.6853 605.492 58.0027 605.726 58.404C605.959 58.8053 606.076 59.2487 606.076 59.734C606.076 60.1447 605.982 60.5273 605.796 60.882C605.618 61.2367 605.371 61.5167 605.054 61.722C605.483 61.9367 605.819 62.254 606.062 62.674C606.314 63.0847 606.44 63.57 606.44 64.13C606.44 64.7367 606.295 65.2687 606.006 65.726C605.726 66.174 605.348 66.5193 604.872 66.762C604.396 66.9953 603.878 67.112 603.318 67.112ZM603.318 61.148C603.728 61.148 604.055 61.0173 604.298 60.756C604.54 60.4947 604.662 60.1587 604.662 59.748C604.662 59.3373 604.54 59.006 604.298 58.754C604.055 58.4927 603.728 58.362 603.318 58.362C602.916 58.362 602.594 58.4927 602.352 58.754C602.109 59.006 601.988 59.3373 601.988 59.748C601.988 60.1587 602.109 60.4947 602.352 60.756C602.594 61.0173 602.916 61.148 603.318 61.148ZM603.318 65.74C603.794 65.74 604.181 65.5953 604.48 65.306C604.788 65.0167 604.942 64.6247 604.942 64.13C604.942 63.6353 604.788 63.2433 604.48 62.954C604.181 62.6647 603.794 62.52 603.318 62.52C602.851 62.52 602.464 62.6647 602.156 62.954C601.857 63.2433 601.708 63.6353 601.708 64.13C601.708 64.6247 601.857 65.0167 602.156 65.306C602.464 65.5953 602.851 65.74 603.318 65.74ZM611.999 67.112C610.851 67.112 609.965 66.6687 609.339 65.782C608.714 64.886 608.401 63.6587 608.401 62.1C608.401 60.5413 608.714 59.3187 609.339 58.432C609.965 57.536 610.851 57.088 611.999 57.088C613.147 57.088 614.034 57.536 614.659 58.432C615.285 59.3187 615.597 60.5413 615.597 62.1C615.597 63.6587 615.285 64.886 614.659 65.782C614.034 66.6687 613.147 67.112 611.999 67.112ZM612.867 58.684C612.625 58.5347 612.335 58.46 611.999 58.46C611.309 58.46 610.781 58.7773 610.417 59.412C610.063 60.0467 609.885 60.9427 609.885 62.1C609.885 62.968 610.002 63.71 610.235 64.326L612.867 58.684ZM611.999 65.74C612.69 65.74 613.213 65.4227 613.567 64.788C613.931 64.1533 614.113 63.2573 614.113 62.1C614.113 61.2413 614.006 60.5273 613.791 59.958L611.187 65.53C611.43 65.67 611.701 65.74 611.999 65.74ZM620.681 67.112C619.533 67.112 618.646 66.6687 618.021 65.782C617.395 64.886 617.083 63.6587 617.083 62.1C617.083 60.5413 617.395 59.3187 618.021 58.432C618.646 57.536 619.533 57.088 620.681 57.088C621.829 57.088 622.715 57.536 623.341 58.432C623.966 59.3187 624.279 60.5413 624.279 62.1C624.279 63.6587 623.966 64.886 623.341 65.782C622.715 66.6687 621.829 67.112 620.681 67.112ZM621.549 58.684C621.306 58.5347 621.017 58.46 620.681 58.46C619.99 58.46 619.463 58.7773 619.099 59.412C618.744 60.0467 618.567 60.9427 618.567 62.1C618.567 62.968 618.683 63.71 618.917 64.326L621.549 58.684ZM620.681 65.74C621.371 65.74 621.894 65.4227 622.249 64.788C622.613 64.1533 622.795 63.2573 622.795 62.1C622.795 61.2413 622.687 60.5273 622.473 59.958L619.869 65.53C620.111 65.67 620.382 65.74 620.681 65.74Z" fill="#F4F6F7"/>
<rect width="72" height="90" transform="translate(648)" fill="#3B444F"/>
<path d="M675.612 63.416C675.509 63.4533 675.383 63.472 675.234 63.472C674.646 63.472 674.114 63.3367 673.638 63.066C673.171 62.7953 672.802 62.4173 672.532 61.932C672.27 61.4467 672.14 60.896 672.14 60.28C672.14 59.6827 672.275 59.1413 672.546 58.656C672.826 58.1707 673.204 57.788 673.68 57.508C674.165 57.228 674.711 57.088 675.318 57.088C675.924 57.088 676.47 57.228 676.956 57.508C677.441 57.788 677.819 58.1707 678.09 58.656C678.37 59.1413 678.51 59.6827 678.51 60.28C678.51 60.8867 678.346 61.4793 678.02 62.058L675.206 67H673.554L675.612 63.416ZM675.318 62.1C675.812 62.1 676.218 61.9367 676.536 61.61C676.853 61.2833 677.012 60.84 677.012 60.28C677.012 59.748 676.848 59.314 676.522 58.978C676.204 58.6327 675.803 58.46 675.318 58.46C674.832 58.46 674.431 58.6327 674.114 58.978C673.796 59.314 673.638 59.748 673.638 60.28C673.638 60.8307 673.796 61.274 674.114 61.61C674.431 61.9367 674.832 62.1 675.318 62.1ZM683.999 67.112C682.851 67.112 681.965 66.6687 681.339 65.782C680.714 64.886 680.401 63.6587 680.401 62.1C680.401 60.5413 680.714 59.3187 681.339 58.432C681.965 57.536 682.851 57.088 683.999 57.088C685.147 57.088 686.034 57.536 686.659 58.432C687.285 59.3187 687.597 60.5413 687.597 62.1C687.597 63.6587 687.285 64.886 686.659 65.782C686.034 66.6687 685.147 67.112 683.999 67.112ZM684.867 58.684C684.625 58.5347 684.335 58.46 683.999 58.46C683.309 58.46 682.781 58.7773 682.417 59.412C682.063 60.0467 681.885 60.9427 681.885 62.1C681.885 62.968 682.002 63.71 682.235 64.326L684.867 58.684ZM683.999 65.74C684.69 65.74 685.213 65.4227 685.567 64.788C685.931 64.1533 686.113 63.2573 686.113 62.1C686.113 61.2413 686.006 60.5273 685.791 59.958L683.187 65.53C683.43 65.67 683.701 65.74 683.999 65.74ZM692.681 67.112C691.533 67.112 690.646 66.6687 690.021 65.782C689.395 64.886 689.083 63.6587 689.083 62.1C689.083 60.5413 689.395 59.3187 690.021 58.432C690.646 57.536 691.533 57.088 692.681 57.088C693.829 57.088 694.715 57.536 695.341 58.432C695.966 59.3187 696.279 60.5413 696.279 62.1C696.279 63.6587 695.966 64.886 695.341 65.782C694.715 66.6687 693.829 67.112 692.681 67.112ZM693.549 58.684C693.306 58.5347 693.017 58.46 692.681 58.46C691.99 58.46 691.463 58.7773 691.099 59.412C690.744 60.0467 690.567 60.9427 690.567 62.1C690.567 62.968 690.683 63.71 690.917 64.326L693.549 58.684ZM692.681 65.74C693.371 65.74 693.894 65.4227 694.249 64.788C694.613 64.1533 694.795 63.2573 694.795 62.1C694.795 61.2413 694.687 60.5273 694.473 59.958L691.869 65.53C692.111 65.67 692.382 65.74 692.681 65.74Z" fill="#F4F6F7"/>
</g>
<defs>
<filter id="filter0_dd_107_1083" x="533" y="32" width="14" height="14" filterUnits="userSpaceOnUse" color-interpolation-filters="sRGB">
<feFlood flood-opacity="0" result="BackgroundImageFix"/>
<feColorMatrix in="SourceAlpha" type="matrix" values="0 0 0 0 0 0 0 0 0 0 0 0 0 0 0 0 0 0 127 0" result="hardAlpha"/>
<feOffset dy="1"/>
<feGaussianBlur stdDeviation="1"/>
<feComposite in2="hardAlpha" operator="out"/>
<feColorMatrix type="matrix" values="0 0 0 0 0.207843 0 0 0 0 0.231373 0 0 0 0 0.266667 0 0 0 0.25 0"/>
<feBlend mode="normal" in2="BackgroundImageFix" result="effect1_dropShadow_107_1083"/>
<feColorMatrix in="SourceAlpha" type="matrix" values="0 0 0 0 0 0 0 0 0 0 0 0 0 0 0 0 0 0 127 0" result="hardAlpha"/>
<feOffset dy="1"/>
<feGaussianBlur stdDeviation="1.5"/>
<feComposite in2="hardAlpha" operator="out"/>
<feColorMatrix type="matrix" values="0 0 0 0 0.207843 0 0 0 0 0.231373 0 0 0 0 0.266667 0 0 0 0.12 0"/>
<feBlend mode="normal" in2="effect1_dropShadow_107_1083" result="effect2_dropShadow_107_1083"/>
<feBlend mode="normal" in="SourceGraphic" in2="effect2_dropShadow_107_1083" result="shape"/>
</filter>
<clipPath id="clip0_107_1083">
<rect width="720" height="90" rx="8" fill="white"/>
</clipPath>
</defs>
</svg>
